<svg xmlns="http://www.w3.org/2000/svg" viewBox="0 0 213 59"><defs><style>.cls-1{fill:#0b2c60;}.cls-2{fill:#75e1d5;}.cls-2,.cls-3,.cls-4{opacity:0.82;}.cls-3{fill:#e23dcb;}.cls-4{fill:#0b4fae;}</style></defs><g id="Layer_3" data-name="Layer 3"><path class="cls-1" d="M74,38.53v-30h9.9a30.28,30.28,0,0,1,6.85.74,15.06,15.06,0,0,1,5.54,2.48A11.49,11.49,0,0,1,100,16.34a17.1,17.1,0,0,1,1.33,7.17,17.12,17.12,0,0,1-1.33,7.2,11.63,11.63,0,0,1-3.68,4.61,15.22,15.22,0,0,1-5.54,2.47,30.28,30.28,0,0,1-6.85.74Zm7.11-6H84a21.18,21.18,0,0,0,3.71-.31A8.51,8.51,0,0,0,90.92,31a6.14,6.14,0,0,0,2.23-2.72A11.77,11.77,0,0,0,94,23.51a11.94,11.94,0,0,0-.81-4.79A6.09,6.09,0,0,0,90.92,16a8.54,8.54,0,0,0-3.19-1.26A19.39,19.39,0,0,0,84,14.38H81.1Z"/><path class="cls-1" d="M116.9,39.07a8.52,8.52,0,0,1-4.66-1.1,5.89,5.89,0,0,1-2.38-3.22,16.24,16.24,0,0,1-.7-5.12V16.23H116V28.68c0,2,.3,3.4.92,4.07a3.28,3.28,0,0,0,2.58,1,3.34,3.34,0,0,0,3-1.34,8.22,8.22,0,0,0,.92-4.46V16.23h6.88v22.3h-5.93l-.95-3.15a8.56,8.56,0,0,1-2.45,2.68A7,7,0,0,1,116.9,39.07Z"/><path class="cls-1" d="M152.47,39.07a9.4,9.4,0,0,1-3.76-.85,6.41,6.41,0,0,1-3-2.7l-.86,3h-6v-30h6.84V19.28a6.76,6.76,0,0,1,3-2.76,8.76,8.76,0,0,1,3.76-.92A9.18,9.18,0,0,1,161.06,21a14.1,14.1,0,0,1,1.26,6.23,14.73,14.73,0,0,1-1.26,6.32,9.63,9.63,0,0,1-3.49,4.11A9.16,9.16,0,0,1,152.47,39.07Zm-2.16-5.31A4.36,4.36,0,0,0,153.75,32a7.27,7.27,0,0,0,1.46-4.83,6.78,6.78,0,0,0-1.46-4.68,4.49,4.49,0,0,0-3.44-1.62,4.69,4.69,0,0,0-3.49,1.51c-1,1-1.46,2.65-1.46,4.92s.49,4,1.46,5A4.73,4.73,0,0,0,150.31,33.76Z"/><path class="cls-1" d="M180.76,39.07a13.74,13.74,0,0,1-6.37-1.42,10.4,10.4,0,0,1-4.32-4.07,12.36,12.36,0,0,1-1.55-6.34,11.1,11.1,0,0,1,6-10.21,12.64,12.64,0,0,1,6-1.43,11.17,11.17,0,0,1,6.31,1.73,10.76,10.76,0,0,1,4,4.76,15,15,0,0,1,1.13,7H175.4a4.58,4.58,0,0,0,1.74,3.51,5.56,5.56,0,0,0,3.44,1.16,7.07,7.07,0,0,0,2.72-.47,4.63,4.63,0,0,0,1.77-1.19l5.44,2a10.72,10.72,0,0,1-4.38,3.78A12.69,12.69,0,0,1,180.76,39.07ZM175.4,25h10.17a4,4,0,0,0-1.49-3.26,5.48,5.48,0,0,0-3.41-1.1,6,6,0,0,0-3.45,1A4.57,4.57,0,0,0,175.4,25Z"/><path class="cls-1" d="M199.19,38.53V16.23h5.4l1.21,4.09a7.2,7.2,0,0,1,2.84-3.78A7.52,7.52,0,0,1,213,15.6v6.83a7.58,7.58,0,0,0-.94-.11c-.27,0-.57,0-.9,0a5.56,5.56,0,0,0-3.8,1.17A4.84,4.84,0,0,0,206,27.29V38.53Z"/><path class="cls-1" d="M74,50.64V43.08H76a6.58,6.58,0,0,1,1.66.19,3.52,3.52,0,0,1,1.31.61A2.83,2.83,0,0,1,79.84,45a4.79,4.79,0,0,1,.3,1.81,4.85,4.85,0,0,1-.3,1.82A2.83,2.83,0,0,1,79,49.83a3.38,3.38,0,0,1-1.31.62,6.58,6.58,0,0,1-1.66.19ZM75,49.75h1a7.11,7.11,0,0,0,1.14-.1,2.54,2.54,0,0,0,1-.38,2,2,0,0,0,.69-.88,3.85,3.85,0,0,0,.26-1.54,3.8,3.8,0,0,0-.26-1.53,1.89,1.89,0,0,0-.69-.86,2.56,2.56,0,0,0-1-.39A7.11,7.11,0,0,0,76,44H75Z"/><path class="cls-1" d="M82.52,50.64V45h.69l.31,1a2.3,2.3,0,0,1,.79-.82,2.25,2.25,0,0,1,1.21-.31v1h-.33a1.67,1.67,0,0,0-1.34.67,3,3,0,0,0-.38,1.63v2.41Z"/><path class="cls-1" d="M89.72,50.78a2.85,2.85,0,0,1-1-.17,2.61,2.61,0,0,1-.87-.53,2.64,2.64,0,0,1-.63-.91,3.87,3.87,0,0,1,0-2.63,2.64,2.64,0,0,1,.63-.91,2.43,2.43,0,0,1,.87-.52,2.63,2.63,0,0,1,1-.17,2.76,2.76,0,0,1,1,.17,2.43,2.43,0,0,1,.87.52,2.49,2.49,0,0,1,.62.91,3.87,3.87,0,0,1,0,2.63,2.49,2.49,0,0,1-.62.91,2.61,2.61,0,0,1-.87.53A3,3,0,0,1,89.72,50.78Zm0-.84a1.6,1.6,0,0,0,1.42-.9,2.93,2.93,0,0,0,0-2.37A1.56,1.56,0,0,0,88.93,46a1.76,1.76,0,0,0-.64.68,2.93,2.93,0,0,0,0,2.37,1.76,1.76,0,0,0,.64.68A1.65,1.65,0,0,0,89.72,49.94Z"/><path class="cls-1" d="M94.65,50.64V45h.7l.25.85a2,2,0,0,1,.67-.67,2.14,2.14,0,0,1,1.14-.27,1.63,1.63,0,0,1,1.44.59,2.66,2.66,0,0,1,.42,1.56v3.55h-1V47.37a4,4,0,0,0-.08-.8A1.07,1.07,0,0,0,97.9,46a1.24,1.24,0,0,0-.81-.23,1.36,1.36,0,0,0-1.09.47,2.1,2.1,0,0,0-.4,1.38v3Z"/><path class="cls-1" d="M104.11,50.78a2.73,2.73,0,0,1-1.49-.39,2.51,2.51,0,0,1-.93-1.06,3.25,3.25,0,0,1-.33-1.48,3,3,0,0,1,.37-1.55,2.57,2.57,0,0,1,1-1,2.77,2.77,0,0,1,1.38-.35,2.6,2.6,0,0,1,1.18.26,2.44,2.44,0,0,1,.84.72,2.88,2.88,0,0,1,.49,1,3.47,3.47,0,0,1,.11,1.16h-4.33a2.06,2.06,0,0,0,.31,1.11,1.55,1.55,0,0,0,.69.57,1.92,1.92,0,0,0,.73.17,1.87,1.87,0,0,0,.8-.15,1.44,1.44,0,0,0,.52-.41l.91.28a2.33,2.33,0,0,1-.87.8A2.76,2.76,0,0,1,104.11,50.78Zm-1.72-3.44h3.31a1.57,1.57,0,0,0-.2-.76A1.75,1.75,0,0,0,105,46a1.6,1.6,0,0,0-.86-.23,1.92,1.92,0,0,0-.79.16,1.46,1.46,0,0,0-.62.51A1.85,1.85,0,0,0,102.39,47.34Z"/><path class="cls-1" d="M113.1,50.63V43.08h2.36a6.69,6.69,0,0,1,1.64.18,2.09,2.09,0,0,1,1.11.67,2.23,2.23,0,0,1,.4,1.44,2.18,2.18,0,0,1-.4,1.42,2,2,0,0,1-1.11.66,6.69,6.69,0,0,1-1.64.18h-1.3v3Zm1.06-3.92h1.4a5,5,0,0,0,1-.08,1.21,1.21,0,0,0,.71-.36,1.31,1.31,0,0,0,.26-.9,1.33,1.33,0,0,0-.26-.92,1.23,1.23,0,0,0-.71-.38,4.25,4.25,0,0,0-1-.1h-1.4Z"/><path class="cls-1" d="M121.35,50.64V45.79h-.78V45h1.73v5.61Zm.48-6.68a.69.69,0,0,1-.5-.21.7.7,0,0,1,0-1,.73.73,0,0,1,1,0,.7.7,0,0,1,0,1A.69.69,0,0,1,121.83,44Z"/><path class="cls-1" d="M126.34,50.64a2.49,2.49,0,0,1-.82-.11.68.68,0,0,1-.4-.41,2.87,2.87,0,0,1-.1-.88V43.09h1v6a1.25,1.25,0,0,0,.09.58c.06.09.22.14.48.14h.22v.84Z"/><path class="cls-1" d="M131.07,50.78a2.94,2.94,0,0,1-1-.17,2.61,2.61,0,0,1-.87-.53,2.49,2.49,0,0,1-.62-.91,3.72,3.72,0,0,1,0-2.63,2.49,2.49,0,0,1,.62-.91,2.43,2.43,0,0,1,.87-.52,2.82,2.82,0,0,1,1.93,0,2.43,2.43,0,0,1,.87.52,2.49,2.49,0,0,1,.62.91,3.87,3.87,0,0,1,0,2.63,2.49,2.49,0,0,1-.62.91,2.61,2.61,0,0,1-.87.53A3,3,0,0,1,131.07,50.78Zm0-.84a1.62,1.62,0,0,0,.79-.22,1.76,1.76,0,0,0,.64-.68,2.93,2.93,0,0,0,0-2.37,1.76,1.76,0,0,0-.64-.68,1.62,1.62,0,0,0-.79-.22,1.69,1.69,0,0,0-.79.22,1.76,1.76,0,0,0-.64.68,3,3,0,0,0,0,2.37,1.76,1.76,0,0,0,.64.68A1.69,1.69,0,0,0,131.07,49.94Z"/><path class="cls-1" d="M137.71,50.64a2.53,2.53,0,0,1-.82-.11.64.64,0,0,1-.39-.41,2.82,2.82,0,0,1-.11-.88V45.79h-.95V45h.95V43.61h1V45h1.09v.76h-1.09v3.29a1.25,1.25,0,0,0,.09.58c0,.09.22.14.49.14h.51v.84Z"/><path class="cls-1" d="M145,50.64V43.08H146v3.21h4V43.08H151v7.56H150V47.21h-4v3.43Z"/><path class="cls-1" d="M154.2,50.64V45.79h-.78V45h1.73v5.61Zm.48-6.68a.71.71,0,0,1-.49-1.21.7.7,0,0,1,.49-.2.72.72,0,0,1,.5.2.7.7,0,0,1,0,1A.69.69,0,0,1,154.68,44Z"/><path class="cls-1" d="M157.87,50.64V45h.69l.31,1a2.3,2.3,0,0,1,.79-.82,2.25,2.25,0,0,1,1.21-.31v1h-.33a1.67,1.67,0,0,0-1.34.67,3,3,0,0,0-.38,1.63v2.41Z"/><path class="cls-1" d="M165.12,50.78a2.73,2.73,0,0,1-1.49-.39,2.51,2.51,0,0,1-.93-1.06,3.25,3.25,0,0,1-.33-1.48,3,3,0,0,1,.37-1.55,2.62,2.62,0,0,1,1-1,2.84,2.84,0,0,1,1.39-.35,2.6,2.6,0,0,1,1.18.26,2.44,2.44,0,0,1,.84.72,2.88,2.88,0,0,1,.49,1,3.47,3.47,0,0,1,.11,1.16h-4.33a2.06,2.06,0,0,0,.31,1.11,1.55,1.55,0,0,0,.69.57,1.92,1.92,0,0,0,.73.17,1.87,1.87,0,0,0,.8-.15,1.44,1.44,0,0,0,.52-.41l.91.28a2.33,2.33,0,0,1-.87.8A2.76,2.76,0,0,1,165.12,50.78Zm-1.72-3.44h3.31a1.57,1.57,0,0,0-.2-.76A1.75,1.75,0,0,0,166,46a1.6,1.6,0,0,0-.86-.23,1.92,1.92,0,0,0-.79.16,1.46,1.46,0,0,0-.62.51A1.85,1.85,0,0,0,163.4,47.34Z"/><path class="cls-1" d="M170.22,50.78a.7.7,0,0,1-.51-.22.67.67,0,0,1-.22-.51.73.73,0,0,1,.73-.73.73.73,0,0,1,.52.21.72.72,0,0,1,.21.52.69.69,0,0,1-.21.51A.74.74,0,0,1,170.22,50.78Z"/><path class="cls-2" d="M12.52.27c8.59,0,9.89,7.31,17.35,7.31C37,7.58,38.63.27,47.22.27a12.07,12.07,0,0,1,12,12,13.59,13.59,0,0,1-4.38,10.05L40.57,36.59s-4.21,5.19-10.7,5.19-10.7-5.19-10.7-5.19L3.93,21A13.78,13.78,0,0,1,.52,12.27C.52,7.08,4.58.27,12.52.27Z"/><path class="cls-3" d="M47.22,59c-8.59,0-9.89-7.31-17.35-7.31-7.13,0-8.76,7.31-17.35,7.31a12.07,12.07,0,0,1-12-12A13.59,13.59,0,0,1,4.9,37L19.17,22.68s4.21-5.19,10.7-5.19,10.7,5.19,10.7,5.19L55.81,38.25A13.75,13.75,0,0,1,59.22,47C59.22,52.19,55.17,59,47.22,59Z"/><path class="cls-4" d="M40.57,22.68s-4.21-5.19-10.7-5.19-10.7,5.19-10.7,5.19l-6.88,6.88,6.88,7s4.21,5.19,10.7,5.19,10.7-5.19,10.7-5.19l6.88-6.88Z"/></g></svg>