<svg width="53" height="16" viewBox="0 0 53 16" fill="none" xmlns="http://www.w3.org/2000/svg">
<path d="M43.9733 6.08774V4.46876H40.9026L39.5529 4.44561C38.3989 4.44561 37.6099 5.20513 37.3007 6.08774V4.46876H33.8618V14.9663H37.3007V12.7151V9.23102C37.3007 8.18431 38.1486 7.33642 39.1953 7.33642H40.5355V14.9663H43.9744V12.7151V9.23102C43.9744 8.18431 44.8222 7.33642 45.8689 7.33642H47.5763V4.46876L46.2266 4.44561C45.0726 4.44456 44.2847 5.20513 43.9733 6.08774ZM19.5014 4.68862L17.6562 10.7553L15.8111 4.68862H12.3722L16.1077 15.1862H16.3087H19.0038H19.2047L22.9403 4.68862H19.5014ZM5.44919 4.68862V3.98906C5.44919 3.37576 5.94572 2.87923 6.55902 2.87923H8.73028V0H5.74795C3.68399 0 2.01031 1.67368 2.01031 3.73764V4.68967H0V7.47212H2.01031V15.1873H5.45024V7.47212H8.73028V15.1873H12.1692V7.47212V4.68967H8.73028H5.44919V4.68862ZM27.7078 4.54766H27.2891C24.4719 4.54766 22.1881 6.83148 22.1881 9.64865V10.2251C22.1881 13.0423 24.4719 15.3261 27.2891 15.3261H28.2201C30.1494 15.3261 31.7999 14.1353 32.4785 12.449L29.4446 11.5632C29.4446 11.5632 29.0816 12.6026 27.8161 12.6026C26.3876 12.6026 25.6312 11.8199 25.5313 10.9342H25.5302V10.9289C25.5228 10.8647 25.5197 10.7995 25.5197 10.7343H29.3993H32.8098V9.64865C32.8098 6.83148 30.526 4.54766 27.7078 4.54766ZM25.5239 8.71029C25.5649 7.76668 26.3413 7.01347 27.2954 7.01347H27.6236C28.5778 7.01347 29.3541 7.76668 29.3951 8.71029H25.5239ZM50.3608 11.153C49.1795 11.153 48.2222 12.1103 48.2222 13.2916C48.2222 14.473 49.1795 15.4303 50.3608 15.4303C51.5422 15.4303 52.4995 14.473 52.4995 13.2916C52.4984 12.1103 51.5422 11.153 50.3608 11.153Z" fill="#2BC74A"/>
</svg>
